<svg xmlns="http://www.w3.org/2000/svg" xmlns:xlink="http://www.w3.org/1999/xlink" width="818.699" height="567.205" viewBox="0 0 818.699 567.205">
  <defs>
    <linearGradient id="linear-gradient" x1="0.5" x2="1.22" y2="1" gradientUnits="objectBoundingBox">
      <stop offset="0" stop-color="#f05050"/>
      <stop offset="1" stop-color="#d9000d"/>
    </linearGradient>
    <linearGradient id="linear-gradient-2" x1="-0.242" y1="0.604" x2="1.397" y2="0.301" gradientUnits="objectBoundingBox">
      <stop offset="0" stop-color="#d8e1e5"/>
      <stop offset="1" stop-color="#fff"/>
    </linearGradient>
  </defs>
  <g id="Group_3368" data-name="Group 3368" transform="translate(-90.301 -203.539)">
    <g id="Group_3363" data-name="Group 3363" transform="translate(261.337 203.539)">
      <g id="Group_3313" data-name="Group 3313">
        <path id="Path_7288" data-name="Path 7288" d="M-882.613,587.067A178.728,178.728,0,0,1-724.968,656.55a173.784,173.784,0,0,1,35.279,90.983A177.438,177.438,0,0,1-850.155,940.456a177.437,177.437,0,0,1-192.923-160.465A177.438,177.438,0,0,1-882.613,587.067Z" transform="translate(1043.833 -586.378)" fill="url(#linear-gradient)"/>
        <path id="Path_7287" data-name="Path 7287" d="M-690.467,851.636a49.477,49.477,0,0,0-68.511,8.069l-1.4,1.681-1.681-1.4a49.468,49.468,0,0,0-68.834,4.546,48.41,48.41,0,0,0,4.982,68.281q.345.3.7.591l64.482,53.64a16.739,16.739,0,0,0,23.575-2.163l0,0,53.64-64.49a48.419,48.419,0,0,0-6.259-68.187Q-690.117,851.917-690.467,851.636Z" transform="translate(934.935 -724.444)" fill="#fff"/>
      </g>
      <g id="Group_3362" data-name="Group 3362" transform="translate(173.683 151.195)">
        <path id="Path_7466" data-name="Path 7466" d="M-432.389,1331.642q-5.884-.666-11.768-1.333a129.7,129.7,0,0,1-19.358-3.768,129.18,129.18,0,0,1-27.132-10.678,138.066,138.066,0,0,1-25.3-17.4c-15.108-13.031-27.435-28.428-38.323-45.047-6.51-9.935-12.438-20.208-18.024-30.688q-7.033-13.2-13.286-26.777c-4.382-9.507-8.948-18.945-12.132-28.954a47.351,47.351,0,0,1-2.489-14.865c.078-8.918,5.3-13.472,12.632-15.025a46.523,46.523,0,0,1,13.537-.548A44.852,44.852,0,0,1-559.2,1140.2a77.855,77.855,0,0,1,13.422,7.919c10.618,7.577,19.9,16.652,28.713,26.18a474.1,474.1,0,0,1,41.253,51.925c1.545,2.227,3.113,4.44,4.6,6.7a1.534,1.534,0,0,0,1.99.778,52.082,52.082,0,0,0,5.706-1.479,6.771,6.771,0,0,0,2.374-.29c3.71-.851,7.428-1.674,11.136-2.532a4.95,4.95,0,0,1,1.941-.121q11.943,1.848,23.9,3.631c1.665.25,3.338.469,5.014.615a1.654,1.654,0,0,0,1.875-1.476,1.829,1.829,0,0,0-1.348-2.194,5.516,5.516,0,0,0-1.068-.255q-6.193-.927-12.389-1.838-6.412-.949-12.825-1.9a2.114,2.114,0,0,1-2.082-1.539c-3.557-11.045-6.356-22.237-7.075-33.875a57.228,57.228,0,0,0-1.677-11.06c-2.776-10.558-9.175-17.811-19.539-21.454a55.986,55.986,0,0,0-13.083-2.761c-9.594-.958-19.187-.425-28.78.072a2.04,2.04,0,0,0-1.254.318c-7.791-7.627-15.275-15.551-22.782-23.453-3.024-3.183-6.129-6.287-9.093-9.53-3.7-4.051-7.528-7.989-11.291-11.986-.3-.32-.539-.7-1.021-.767a2.554,2.554,0,0,0-.783-1.293c-1.941-2.092-3.892-4.177-5.813-6.288-4.581-5.032-9.2-10.035-13.71-15.13-5.772-6.517-11.469-13.1-17.174-19.678-4.459-5.139-8.862-10.325-13.12-15.635a10.876,10.876,0,0,0-2.54-2.676,5.531,5.531,0,0,0-1.108-1.881c-2.26-2.882-4.5-5.781-6.8-8.627-1.237-1.529-2.126-3.347-3.748-4.558-.846-2.061-2.38-3.669-3.646-5.445A259.6,259.6,0,0,1-650.5,997.294a143.351,143.351,0,0,1-11.132-27.667,101.857,101.857,0,0,1-3.3-18.977,48.443,48.443,0,0,1,1.02-15.894,24.757,24.757,0,0,1,7.5-12.923c6.26-5.519,13.734-6.646,21.642-5.283,10.071,1.736,18.122,7.26,25.18,14.33,3.725,3.731,7.209,7.7,10.775,11.59,1.93,2.1,3.722,4.342,5.724,6.373,2.259,2.292,4.081,4.993,6.623,7.011a19.1,19.1,0,0,0,1.255,1.771c3.678,4.151,7.337,8.32,11.092,12.4a41.344,41.344,0,0,0,4.3,4.646,7.073,7.073,0,0,0,.491.718c4.318,4.922,8.67,9.815,12.94,14.779.932,1.083,2.125,2.008,2.594,3.452-1.032,1.566-.1,2.549.985,3.569,7.9,7.429,15.773,14.9,23.684,22.32q38.566,36.184,77.154,72.343a14.327,14.327,0,0,0,1.487,1.3,1.718,1.718,0,0,0,2.39-.251,1.74,1.74,0,0,0,.235-2.4,10.157,10.157,0,0,0-1.367-1.421q-44.094-41.376-88.189-82.751c-4.539-4.262-9.012-8.594-13.515-12.894,1.182-.979,2.347-1.982,3.55-2.935a64.667,64.667,0,0,1,21.6-11.433,80.32,80.32,0,0,1,17.421-3.142,91.444,91.444,0,0,1,14.2.476c1.963.159,3.875.872,5.878.547l.079.063c-.287,1.437.41,2.3,1.564,3.071,5.852,3.917,11.456,8.175,16.991,12.522,18.632,14.635,36.565,30.1,54.3,45.8.549.486,1.074,1,1.662,1.439a1.945,1.945,0,0,0,2.768-.067,1.9,1.9,0,0,0-.134-2.75,12.164,12.164,0,0,0-1.132-1.042c-7.456-6.51-14.858-13.083-22.384-19.511-15.61-13.333-31.308-26.562-48.086-38.438a5.5,5.5,0,0,1-.624-.6,13.638,13.638,0,0,1,5.122-.894c8.747-.458,17.2,1.172,25.511,3.7,12.25,3.716,23.786,9.119,35.151,14.921,11.427,5.833,22.572,12.177,33.7,18.548q15.55,8.9,31.175,17.667,13.028,7.341,26.421,14a309.5,309.5,0,0,0,42.146,17.579,194.5,194.5,0,0,0,20.582,5.4,18.486,18.486,0,0,0,3.727.227h51.28c2.486.006,2.517,0,3.063,2.342,2.571,11.041,4.937,22.125,6.775,33.314,1.018,6.2,2.08,12.4,2.943,18.623.762,5.5,1.276,11.038,1.9,16.559.859,7.636,1.356,15.3,1.849,22.964.236,3.664.2,7.319.348,10.976.028.691-.3,1.484.411,2.049v26.4c-.465.274-.413.739-.41,1.168.045,6.3-.423,12.58-.83,18.865-.274,4.236-.666,8.463-1.065,12.683-.53,5.6-1.366,11.17-2.07,16.753-.869,6.892-2.05,13.736-3.368,20.552q-1.75,9.044-3.757,18.037c-.887,4-2,7.945-2.949,11.93-.21.881-.592,1.271-1.485,1.2-.437-.036-.88,0-1.319,0-17.752,0-35.505.039-53.257-.021-5.713-.019-11.427-.293-17.14-.464-.509-.015-1.013-.166-1.522-.19-1.889-.088-3.787-.493-5.657.17q-15.216,5.4-30.635,10.184c-15.384,4.758-30.906,8.984-46.659,12.354q-10.621,2.272-21.36,3.875c-4.915.739-9.864,1.257-14.8,1.816-3.343.378-6.722.385-10.049.942-.918-.709-1.836.024-2.747.041-5.934.11-11.866.14-17.8-.015C-430.832,1331.646-431.613,1331.128-432.389,1331.642Zm-180.557-353.92c3.83-.005,7.47-.738,9.284-1.679,1.255-.652,1.712-1.569,1.319-2.648a1.933,1.933,0,0,0-2.735-.97c-5.293,2.13-10.5,1.514-15.635-.5-5.711-2.24-10.362-6.016-14.566-10.385a93.468,93.468,0,0,1-12.646-17.116,9.649,9.649,0,0,0-.941-1.478,1.763,1.763,0,0,0-2.37-.45,1.78,1.78,0,0,0-.888,2.244,6.794,6.794,0,0,0,.671,1.375A106.544,106.544,0,0,0-641.3,960.721a57.874,57.874,0,0,0,12.8,11.656C-623.482,975.617-618.062,977.662-612.946,977.722Zm59.384,210.623a35.414,35.414,0,0,0-2.305-11.469c-3.512-9.527-9.023-17.865-15.377-25.7a4.122,4.122,0,0,0-.6-.642,1.86,1.86,0,0,0-2.589-.014,1.86,1.86,0,0,0-.358,2.4,12.162,12.162,0,0,0,1.2,1.567,96.645,96.645,0,0,1,12.395,19.639,38.813,38.813,0,0,1,3.61,12.149c.49,4.652-.46,8.884-3.811,12.366a4.26,4.26,0,0,0-.724.82,1.853,1.853,0,0,0,.254,2.415,1.831,1.831,0,0,0,2.417.219,6.913,6.913,0,0,0,1.285-1.189C-554.9,1197.4-553.616,1193.152-553.562,1188.344Zm138.321-78.736c-.01-1.244-.848-1.74-1.859-2.149-4.95-1.995-9.889-4.016-14.833-6.027a5.3,5.3,0,0,0-.818-.314,1.9,1.9,0,0,0-2.325,1.149,1.882,1.882,0,0,0,.919,2.416,8.452,8.452,0,0,0,1.2.541q7.108,2.9,14.221,5.785a5.993,5.993,0,0,0,1.24.431A1.945,1.945,0,0,0-415.241,1109.608Zm-86.012,196.5c.688.063,1.195-.395,1.582-1.087.853-1.528,1.738-3.038,2.593-4.564,1.46-2.608,2.924-5.215,4.353-7.841a1.9,1.9,0,0,0-.675-2.814,1.873,1.873,0,0,0-2.645.7,6.656,6.656,0,0,0-.434.759q-2.736,4.86-5.467,9.722a22.536,22.536,0,0,0-1.305,2.524C-503.843,1304.972-502.965,1306.165-501.253,1306.106Zm112.116-251.883a1.8,1.8,0,0,0,1.984-1.246,1.824,1.824,0,0,0-.768-2.3,3.615,3.615,0,0,0-.8-.344q-5.175-1.821-10.354-3.626a3.87,3.87,0,0,0-1.281-.231,1.663,1.663,0,0,0-1.65,1.216,1.8,1.8,0,0,0,.6,2.167,4.5,4.5,0,0,0,1.179.564q4.965,1.755,9.939,3.481C-389.949,1054.023-389.588,1054.1-389.137,1054.223Z" transform="translate(665.156 -916.025)" fill="url(#linear-gradient-2)"/>
        <path id="Path_7467" data-name="Path 7467" d="M-134.792,1821.821q.008.2.007.394h-22.889c0-.131,0-.263.007-.394.776-.514,1.557,0,2.328.025,5.934.155,11.865.125,17.8.016C-136.628,1821.844-135.71,1821.111-134.792,1821.821Z" transform="translate(390.434 -1406.204)" fill="#fffefe"/>
        <path id="Path_7468" data-name="Path 7468" d="M-345.178,1437.21a2.043,2.043,0,0,1,1.254-.318c9.592-.5,19.185-1.029,28.779-.072a56.033,56.033,0,0,1,13.083,2.761c10.364,3.643,16.763,10.9,19.539,21.455a57.223,57.223,0,0,1,1.677,11.06c.719,11.639,3.519,22.83,7.076,33.875a2.113,2.113,0,0,0,2.081,1.54q6.412.951,12.825,1.9,6.195.917,12.389,1.837a5.5,5.5,0,0,1,1.068.255,1.829,1.829,0,0,1,1.348,2.194,1.655,1.655,0,0,1-1.875,1.477c-1.676-.146-3.349-.366-5.014-.615q-11.951-1.792-23.9-3.631a4.94,4.94,0,0,0-1.941.122c-3.709.858-7.426,1.681-11.137,2.532a6.769,6.769,0,0,1-2.374.29c-4.248-4.651-8.5-9.3-12.362-14.286-9.014-11.647-16.584-24.119-21.791-37.949a5.028,5.028,0,0,1-.307-.821c-.674-3.637-2.941-6.188-5.528-8.66C-335.365,1447.293-340.367,1442.344-345.178,1437.21Z" transform="translate(491.938 -1197.666)" fill="#141414"/>
        <path id="Path_7469" data-name="Path 7469" d="M-274.5,1048.194a5.513,5.513,0,0,0,.624.6c16.778,11.876,32.476,25.1,48.086,38.438,7.526,6.428,14.927,13,22.384,19.511a12.213,12.213,0,0,1,1.132,1.042,1.9,1.9,0,0,1,.133,2.75,1.945,1.945,0,0,1-2.768.068c-.587-.435-1.113-.953-1.662-1.439-17.731-15.7-35.664-31.165-54.3-45.8-5.535-4.347-11.14-8.6-16.991-12.522-1.154-.773-1.851-1.635-1.564-3.071,1.626-1.309,1.919-1.33,3.606-.31C-275.392,1047.723-274.944,1047.951-274.5,1048.194Z" transform="translate(456.379 -986.787)" fill="#141414"/>
        <path id="Path_7470" data-name="Path 7470" d="M-422.885,1084.614a2.742,2.742,0,0,1,2.863-.186c4.5,4.3,8.977,8.634,13.516,12.9q44.083,41.388,88.189,82.751a10.185,10.185,0,0,1,1.367,1.421,1.74,1.74,0,0,1-.235,2.4,1.717,1.717,0,0,1-2.39.251,14.286,14.286,0,0,1-1.487-1.3q-38.581-36.168-77.154-72.343c-7.911-7.422-15.779-14.891-23.684-22.32C-422.986,1087.164-423.917,1086.181-422.885,1084.614Z" transform="translate(534.246 -1007.02)" fill="#141414"/>
        <path id="Path_7471" data-name="Path 7471" d="M-597.693,1008.637c-5.117-.06-10.536-2.1-15.557-5.344a57.887,57.887,0,0,1-12.8-11.657A106.547,106.547,0,0,1-636.2,977.03a6.8,6.8,0,0,1-.671-1.374,1.781,1.781,0,0,1,.888-2.244,1.763,1.763,0,0,1,2.37.45,9.637,9.637,0,0,1,.941,1.478,93.486,93.486,0,0,0,12.646,17.116c4.2,4.37,8.855,8.146,14.566,10.385,5.132,2.012,10.342,2.629,15.635.5a1.933,1.933,0,0,1,2.735.97c.393,1.078-.064,2-1.319,2.647C-590.224,1007.9-593.863,1008.632-597.693,1008.637Z" transform="translate(649.904 -946.941)" fill="#141840"/>
        <path id="Path_7472" data-name="Path 7472" d="M-447.242,1464.51c-.055,4.808-1.335,9.058-4.6,12.571a6.916,6.916,0,0,1-1.285,1.188,1.83,1.83,0,0,1-2.417-.219,1.853,1.853,0,0,1-.254-2.415,4.228,4.228,0,0,1,.723-.82c3.352-3.482,4.3-7.714,3.812-12.367a38.807,38.807,0,0,0-3.61-12.149,96.627,96.627,0,0,0-12.395-19.639,12.134,12.134,0,0,1-1.2-1.567,1.859,1.859,0,0,1,.358-2.4,1.859,1.859,0,0,1,2.589.014,4.1,4.1,0,0,1,.6.642c6.354,7.831,11.865,16.168,15.377,25.7A35.409,35.409,0,0,1-447.242,1464.51Z" transform="translate(558.836 -1192.191)" fill="#141840"/>
        <path id="Path_7473" data-name="Path 7473" d="M-143.856,1328a1.944,1.944,0,0,1-2.258,1.833,5.952,5.952,0,0,1-1.24-.432q-7.113-2.886-14.221-5.785a8.468,8.468,0,0,1-1.2-.542,1.882,1.882,0,0,1-.919-2.416,1.9,1.9,0,0,1,2.325-1.149,5.273,5.273,0,0,1,.818.313c4.943,2.011,9.883,4.032,14.833,6.027C-144.7,1326.258-143.865,1326.754-143.856,1328Z" transform="translate(393.77 -1134.415)" fill="#141414"/>
        <path id="Path_7474" data-name="Path 7474" d="M-310.377,1746.91c-1.712.059-2.59-1.135-2-2.6a22.5,22.5,0,0,1,1.305-2.524q2.722-4.867,5.467-9.723a6.674,6.674,0,0,1,.434-.759,1.873,1.873,0,0,1,2.645-.7,1.9,1.9,0,0,1,.675,2.814c-1.429,2.625-2.893,5.232-4.353,7.84-.855,1.527-1.739,3.036-2.593,4.564C-309.182,1746.515-309.689,1746.973-310.377,1746.91Z" transform="translate(474.28 -1356.828)" fill="#fffefe"/>
        <path id="Path_7475" data-name="Path 7475" d="M-78.7,1208.19c-.451-.123-.811-.2-1.157-.32q-4.972-1.731-9.939-3.481a4.5,4.5,0,0,1-1.179-.564,1.8,1.8,0,0,1-.6-2.167,1.663,1.663,0,0,1,1.65-1.216,3.863,3.863,0,0,1,1.281.231q5.183,1.794,10.354,3.626a3.624,3.624,0,0,1,.8.344,1.823,1.823,0,0,1,.768,2.3A1.8,1.8,0,0,1-78.7,1208.19Z" transform="translate(354.721 -1069.992)" fill="#141414"/>
      </g>
    </g>
    <path id="Path_7420" data-name="Path 7420" d="M2092.043,115.468c.325.238.668.456.974.718,1.358,1.167,1.528,2.5.255,3.8q-6.36,6.485-12.842,12.849a2.325,2.325,0,0,1-3.482.168,2.255,2.255,0,0,1,.076-3.3c4.486-4.539,9.031-9.018,13.564-13.51a8.539,8.539,0,0,1,.964-.724Z" transform="translate(-1425.256 211.245)" fill="#d9000d"/>
    <path id="Path_7439" data-name="Path 7439" d="M1016.6,1326.851a13.982,13.982,0,0,1-13.9-13.885,14.191,14.191,0,0,1,14.087-14.045,13.965,13.965,0,0,1-.182,27.93Zm9.165-13.8a9.086,9.086,0,0,0-9.068-9.277,9.35,9.35,0,0,0-9.167,9.043,9.037,9.037,0,0,0,9.154,9.181A8.935,8.935,0,0,0,1025.764,1313.052Z" transform="translate(-577.563 -704.962)" fill="#d9000d"/>
    <path id="Path_7440" data-name="Path 7440" d="M2158.61,1292.018c-.087.349-.191.825-.325,1.292q-2.952,10.351-5.915,20.7a11.471,11.471,0,0,1-.449,1.4c-.615,1.437-1.588,2.027-2.83,1.756-1.3-.284-1.937-1.386-1.722-3.054a9.92,9.92,0,0,1,.35-1.422q2.879-10.118,5.77-20.232a8.115,8.115,0,0,1,.684-1.823,2.213,2.213,0,0,1,2.679-1.162A2.591,2.591,0,0,1,2158.61,1292.018Z" transform="translate(-1507.599 -1005.353)" fill="#d9000d"/>
    <path id="Path_7477" data-name="Path 7477" d="M1016.6,1326.851a13.982,13.982,0,0,1-13.9-13.885,14.191,14.191,0,0,1,14.087-14.045,13.965,13.965,0,0,1-.182,27.93Zm9.165-13.8a9.086,9.086,0,0,0-9.068-9.277,9.35,9.35,0,0,0-9.167,9.043,9.037,9.037,0,0,0,9.154,9.181A8.935,8.935,0,0,0,1025.764,1313.052Z" transform="translate(-912.393 -950.504)" fill="#d9000d"/>
    <path id="Path_7478" data-name="Path 7478" d="M2158.61,1292.018c-.087.349-.191.825-.325,1.292q-2.952,10.351-5.915,20.7a11.471,11.471,0,0,1-.449,1.4c-.615,1.437-1.588,2.027-2.83,1.756-1.3-.284-1.937-1.386-1.722-3.054a9.92,9.92,0,0,1,.35-1.422q2.879-10.118,5.77-20.232a8.115,8.115,0,0,1,.684-1.823,2.213,2.213,0,0,1,2.679-1.162A2.591,2.591,0,0,1,2158.61,1292.018Z" transform="translate(-1471.103 -945.828)" fill="#d9000d"/>
  </g>
</svg>
